<svg xmlns="http://www.w3.org/2000/svg" viewBox="0 0 462.63 106.34"><title>loop-u-in-logo-color</title><path d="M377.28,27.74a2.26,2.26,0,0,0-1.14-1.95l-16.76-9.5a2.25,2.25,0,0,0-2.23,0l-15.56,8.87L326.3,16.3a2.28,2.28,0,0,0-2.26,0L307.35,26h0a2.15,2.15,0,0,0-.82.82s0,.06,0,.09a2.49,2.49,0,0,0-.18.45,1.52,1.52,0,0,0,0,.21,2.2,2.2,0,0,0,0,.37V85.06a28.26,28.26,0,0,0,11.32,23.29c6.45,4.93,15.08,7.65,24.31,7.65h16.23a2.26,2.26,0,0,0,0-4.51c-13.41,0-24.72-3.3-29.19-9.8-3.49-5.07-3.7-11.32-3.72-15.77V40L339.6,31.8v44c0,4.94,0,10,2.33,14.08,2.7,4.68,8,7,16.15,7C372,96.8,377,85.28,377,75.42c0-9.3.29-47.27.3-47.66h0A0,0,0,0,0,377.28,27.74Zm-19-6.89,12.21,6.91-12.21,7.05-12.13-7Zm-33.1,14L313,27.91l12.17-7,12.16,7.05Zm32.91,57.47-1.36,0c1.08-1.61,1.55-4,1.55-7.21V40h0l14.47-8.36c-.08,10-.27,36.22-.27,43.75C372.47,83.58,368.69,92.29,358.08,92.29Z" transform="translate(-35.41 -16)" style="fill:#2e5eff"/><path d="M35.41,27.89H54.5V85.27H84.25v16.65H35.41Z" transform="translate(-35.41 -16)" style="fill:#2e5eff"/><path d="M89.57,75.06C89.57,60,100.56,47,118.76,47c18.43,0,29.31,13,29.31,28.08s-10.88,28.19-29.31,28.19C100.56,103.25,89.57,90.16,89.57,75.06Zm41,0c0-7.1-4.22-13-11.77-13s-11.54,5.89-11.54,13,4.11,13.1,11.54,13.1S130.53,82.28,130.53,75.06Z" transform="translate(-35.41 -16)" style="fill:#2e5eff"/><path d="M153.5,75.06C153.5,60,164.49,47,182.69,47,201.12,47,212,60,212,75.06s-10.88,28.19-29.31,28.19C164.49,103.25,153.5,90.16,153.5,75.06Zm41,0c0-7.1-4.22-13-11.77-13s-11.54,5.89-11.54,13,4.11,13.1,11.54,13.1S194.46,82.28,194.46,75.06Z" transform="translate(-35.41 -16)" style="fill:#2e5eff"/><path d="M221,122.34v-74h17.1v6.22A20,20,0,0,1,254,47c13.43,0,23.53,10,23.53,28.08s-10.1,28.19-23.53,28.19a19.9,19.9,0,0,1-15.87-7.66v26.75Zm27.31-60.27c-3.66,0-8.1,2-10.21,4.89V83.27a14,14,0,0,0,10.21,4.89c6.66,0,11.76-5,11.76-13.1S255,62.07,248.29,62.07Z" transform="translate(-35.41 -16)" style="fill:#2e5eff"/><path d="M412.68,27.89h19.09v74H412.68Z" transform="translate(-35.41 -16)" style="fill:#2e5eff"/><path d="M480.94,71c0-6.54-3.44-8.88-8.77-8.88a13.24,13.24,0,0,0-10.43,5.22v34.63H444.65V48.31h17.09v6.55C465,51.09,471.29,47,480.28,47,492.49,47,498,54.08,498,64v38h-17.1Z" transform="translate(-35.41 -16)" style="fill:#2e5eff"/></svg>