<svg xmlns="http://www.w3.org/2000/svg" viewBox="0 0 71.06 100"><title>loop-u-in-mark-color</title><path d="M88.28,14.49a2.26,2.26,0,0,0-1.14-2L70.38,3a2.25,2.25,0,0,0-2.23,0L52.59,11.92,37.3,3.05a2.28,2.28,0,0,0-2.26,0L18.35,12.72h0a2.15,2.15,0,0,0-.82.82s0,.06,0,.09a2.49,2.49,0,0,0-.18.45,1.52,1.52,0,0,0,0,.21,2.2,2.2,0,0,0-.05.37V71.81A28.26,28.26,0,0,0,28.54,95.1c6.45,4.93,15.08,7.65,24.31,7.65H69.08a2.26,2.26,0,0,0,0-4.51c-13.41,0-24.72-3.3-29.19-9.8-3.49-5.07-3.7-11.32-3.72-15.77V26.76L50.6,18.55v44c0,4.94,0,10,2.33,14.08,2.7,4.68,8,7,16.15,7C83,83.55,88,72,88,62.17c0-9.3.29-47.27.3-47.66h0Zm-19-6.89,12.21,6.91-12.21,7-12.13-7Zm-33.1,14L24,14.66l12.17-7,12.16,7.05ZM69.08,79l-1.36,0c1.08-1.61,1.55-4,1.55-7.21v-45h0l14.47-8.36c-.08,10-.27,36.22-.27,43.75C83.47,70.33,79.69,79,69.08,79Z" transform="translate(-17.22 -2.75)" style="fill:#2e5eff"/></svg>